<svg width="254" height="254" viewBox="0 0 254 254" fill="none" xmlns="http://www.w3.org/2000/svg">
<path d="M216.525 100.357C211.735 94.9684 205.448 90.2243 197.779 86.148C198.079 77.4658 197.111 69.6587 194.831 62.8189C191.492 52.7318 185.32 44.8556 176.983 40.0424C168.646 35.2292 158.744 33.8244 148.334 35.9892C141.287 37.4401 134.01 40.503 126.663 45.109C119.317 40.503 112.039 37.4401 104.992 35.9892C94.5827 33.8474 84.6799 35.2522 76.3431 40.0424C68.0063 44.8556 61.8343 52.7318 58.495 62.8189C56.2381 69.6587 55.2478 77.4888 55.5472 86.148C47.8783 90.2243 41.5912 94.9684 36.801 100.357C29.7308 108.303 26 117.584 26 127.21C26 136.837 29.7308 146.118 36.801 154.063C41.5912 159.452 47.8783 164.196 55.5472 168.272C55.2478 176.954 56.2151 184.762 58.495 191.601C61.8343 201.688 68.0063 209.565 76.3431 214.378C82.1466 217.74 88.641 219.421 95.6421 219.421C105.568 219.421 115.977 216.036 126.686 209.311C137.395 216.013 147.805 219.421 157.73 219.421C164.731 219.421 171.226 217.717 177.006 214.378C185.343 209.565 191.515 201.688 194.854 191.601C197.111 184.762 198.102 176.931 197.802 168.272C205.471 164.196 211.758 159.452 216.548 154.063C223.619 146.118 227.349 136.837 227.349 127.21C227.349 117.584 223.619 108.303 216.548 100.357H216.525Z" fill="#7B5EA7" stroke="#F8F3D9" stroke-width="7.18217" stroke-linecap="round" stroke-linejoin="round"/>
<path d="M133.019 88.3834C138.164 88.5821 143.199 88.9796 148.101 89.5979C143.795 83.9231 139.268 78.7341 134.631 74.1633C131.849 76.2831 129.089 78.6899 126.351 81.3396C128.603 83.5256 130.833 85.8662 133.041 88.3834H133.019Z" fill="#F8F3D9" stroke="#231F20" stroke-width="2.20809" stroke-linecap="round" stroke-linejoin="round"/>
<path d="M84.2647 91.8946C82.8294 78.7344 85.2804 69.3058 90.9552 66.0158C92.5671 65.0884 94.4881 64.6247 96.63 64.6247C102.062 64.6247 109.062 67.5394 116.702 73.1479C117.143 73.4791 117.585 73.8104 118.026 74.1416C120.764 71.4477 123.525 68.9746 126.307 66.7445C125.247 65.9054 124.209 65.0884 123.149 64.3156C108.62 53.6726 95.2389 50.8904 85.4791 56.521C75.7194 62.1516 71.4357 75.1131 73.3788 93.0428C73.5113 94.3456 73.6879 95.6483 73.9087 96.9953C77.243 95.6925 80.7538 94.5443 84.4413 93.5286C84.3751 92.9766 84.3088 92.4245 84.2426 91.8725L84.2647 91.8946Z" fill="#F8F3D9" stroke="#231F20" stroke-width="2.20809" stroke-linecap="round" stroke-linejoin="round"/>
<path d="M156.668 102.051C152.031 101.124 147.151 100.417 142.116 99.9316C145.097 104.127 147.968 108.587 150.662 113.246C153.356 117.905 155.785 122.609 157.926 127.29C160.024 122.697 161.857 118.126 163.358 113.622C162.32 111.657 161.239 109.713 160.134 107.77C159.008 105.827 157.86 103.928 156.69 102.051H156.668Z" fill="#F8F3D9" stroke="#231F20" stroke-width="2.20809" stroke-linecap="round" stroke-linejoin="round"/>
<path d="M126.329 155.377C120.941 155.377 115.664 155.135 110.541 154.627C113.478 158.734 116.525 162.598 119.66 166.175C121.869 166.263 124.099 166.307 126.351 166.307C128.603 166.307 130.833 166.263 133.041 166.175C136.177 162.62 139.224 158.756 142.161 154.627C137.038 155.112 131.739 155.377 126.373 155.377H126.329Z" fill="#F8F3D9" stroke="#231F20" stroke-width="2.20809" stroke-linecap="round" stroke-linejoin="round"/>
<path d="M95.9895 152.528C92.7215 151.888 89.564 151.115 86.561 150.254C85.6336 153.942 84.927 157.541 84.4854 161.008C90.7563 162.752 97.5131 164.077 104.579 164.96C101.598 161.03 98.7275 156.878 95.9895 152.506V152.528Z" fill="#F8F3D9" stroke="#231F20" stroke-width="2.20809" stroke-linecap="round" stroke-linejoin="round"/>
<path d="M148.078 164.982C155.144 164.099 161.901 162.752 168.172 161.03C167.73 157.563 167.024 153.964 166.096 150.277C163.071 151.138 159.914 151.889 156.668 152.551C153.93 156.901 151.059 161.074 148.078 165.005V164.982Z" fill="#F8F3D9" stroke="#231F20" stroke-width="2.20809" stroke-linecap="round" stroke-linejoin="round"/>
<path d="M167.156 56.5653C157.396 50.9347 144.015 53.6948 129.486 64.3599C128.426 65.1327 127.388 65.9497 126.329 66.7888C123.546 69.019 120.786 71.492 118.048 74.1859C113.411 78.7566 108.885 83.9456 104.579 89.6204C101.598 93.5508 98.7275 97.702 95.9895 102.074C94.8192 103.951 93.6489 105.85 92.5449 107.793C91.4187 109.736 90.3368 111.679 89.321 113.644C90.8446 118.127 92.6553 122.698 94.7529 127.313C96.8948 122.631 99.3237 117.928 102.018 113.269C104.711 108.61 107.582 104.15 110.563 99.9543C113.5 95.8472 116.547 91.9831 119.682 88.406C121.868 85.9108 124.121 83.5482 126.373 81.3622C129.111 78.7125 131.871 76.3057 134.653 74.1859C135.095 73.8547 135.536 73.5014 135.978 73.1923C143.618 67.5837 150.618 64.669 156.049 64.669C158.213 64.669 160.112 65.1327 161.724 66.0601C167.421 69.3502 169.85 78.7787 168.415 91.9389C168.349 92.4909 168.282 93.043 168.216 93.595C171.904 94.6107 175.436 95.781 178.749 97.0617C178.947 95.7368 179.124 94.412 179.279 93.1092C181.244 75.2016 176.938 62.2181 167.178 56.5874L167.156 56.5653Z" fill="#F8F3D9" stroke="#231F20" stroke-width="2.20809" stroke-linecap="round" stroke-linejoin="round"/>
<path d="M166.119 104.326C165.346 107.373 164.441 110.487 163.359 113.644C161.835 118.127 160.024 122.698 157.927 127.312C155.785 131.994 153.356 136.697 150.662 141.356C147.968 146.015 145.098 150.475 142.117 154.671C139.18 158.778 136.133 162.642 132.997 166.219C130.811 168.714 128.559 171.077 126.307 173.263C123.569 175.913 120.809 178.319 118.027 180.439C117.585 180.77 117.143 181.124 116.702 181.433C106.037 189.249 96.6302 191.855 90.9554 188.565C85.2585 185.275 82.8297 175.846 84.2649 162.686C84.3312 162.134 84.3974 161.582 84.4636 161.03C84.9053 157.563 85.6118 153.964 86.5392 150.277C87.3121 147.229 88.2174 144.116 89.2994 140.958C86.8925 136.41 84.7286 131.839 82.8076 127.29C80.0475 133.871 77.8173 140.384 76.1833 146.677C75.2118 150.387 74.461 154.008 73.9311 157.541C73.7323 158.866 73.5557 160.191 73.4011 161.494C71.4359 179.401 75.7417 192.385 85.5014 198.015C88.8136 199.914 92.5232 200.864 96.564 200.864C104.447 200.864 113.566 197.265 123.171 190.221C124.231 189.448 125.269 188.631 126.329 187.792C129.111 185.562 131.871 183.089 134.609 180.395C139.246 175.824 143.773 170.635 148.079 164.96C151.06 161.03 153.93 156.879 156.668 152.507C157.838 150.63 159.009 148.731 160.113 146.788C161.239 144.845 162.321 142.902 163.337 140.936C165.743 136.388 167.907 131.817 169.828 127.268C172.588 120.688 174.819 114.174 176.453 107.881C173.229 106.534 169.762 105.342 166.097 104.304L166.119 104.326Z" fill="#F8F3D9" stroke="#231F20" stroke-width="2.20809" stroke-linecap="round" stroke-linejoin="round"/>
<path d="M182.414 98.5629C181.222 98.0329 179.986 97.5251 178.727 97.0393C175.393 95.7365 171.882 94.5883 168.194 93.5726C161.923 91.8282 155.167 90.5034 148.101 89.6201C143.199 89.0019 138.164 88.6044 133.019 88.4057C130.811 88.3174 128.581 88.2732 126.329 88.2732C124.077 88.2732 121.847 88.3174 119.638 88.4057C116.503 91.9607 113.456 95.8249 110.519 99.954C115.642 99.4682 120.941 99.2032 126.307 99.2032C131.673 99.2032 136.972 99.4461 142.095 99.954C147.129 100.44 152.009 101.146 156.646 102.074C159.914 102.714 163.072 103.487 166.075 104.348C169.74 105.386 173.207 106.6 176.43 107.925C176.938 108.146 177.468 108.367 177.954 108.588C190.054 113.931 197.01 120.754 197.01 127.312C197.01 133.87 190.054 140.715 177.954 146.037C177.446 146.258 176.938 146.478 176.43 146.699C177.402 150.409 178.153 154.03 178.683 157.563C179.941 157.077 181.156 156.569 182.37 156.039C198.865 148.775 207.94 138.573 207.94 127.312C207.94 116.051 198.865 105.85 182.37 98.585L182.414 98.5629Z" fill="#F8F3D9" stroke="#231F20" stroke-width="2.20809" stroke-linecap="round" stroke-linejoin="round"/>
<path d="M119.638 166.197C116.503 162.642 113.456 158.778 110.519 154.649C107.538 150.453 104.668 145.993 101.974 141.334C99.2798 136.675 96.8509 131.972 94.7091 127.29C92.6114 122.698 90.7787 118.127 89.2772 113.622C88.2173 110.465 87.2899 107.351 86.5171 104.304C82.8516 105.342 79.3849 106.556 76.1611 107.881C77.7951 114.174 80.0253 120.688 82.7854 127.268C84.7064 131.817 86.8704 136.388 89.2772 140.936C90.315 142.902 91.3969 144.845 92.501 146.788C93.6271 148.731 94.7753 150.63 95.9456 152.507C98.6836 156.857 101.554 161.03 104.535 164.96C108.841 170.635 113.367 175.824 118.004 180.395C120.787 178.275 123.547 175.868 126.285 173.219C124.032 171.033 121.802 168.692 119.594 166.175L119.638 166.197Z" fill="#F8F3D9" stroke="#231F20" stroke-width="2.20809" stroke-linecap="round" stroke-linejoin="round"/>
<path d="M179.257 161.494C179.124 160.191 178.948 158.888 178.727 157.541C178.197 154.008 177.424 150.387 176.474 146.678C174.84 140.384 172.61 133.871 169.85 127.291C167.929 131.839 165.765 136.41 163.358 140.959C164.418 144.116 165.346 147.23 166.119 150.277C167.046 153.964 167.752 157.563 168.194 161.03C168.26 161.582 168.327 162.134 168.393 162.686C169.828 175.846 167.377 185.275 161.702 188.565C156.005 191.855 146.621 189.249 135.956 181.433C135.514 181.102 135.073 180.77 134.631 180.439C131.893 183.133 129.133 185.606 126.351 187.836C127.411 188.675 128.449 189.492 129.508 190.265C139.114 197.309 148.233 200.908 156.116 200.908C160.157 200.908 163.888 199.959 167.178 198.06C176.938 192.429 181.222 179.468 179.279 161.538L179.257 161.494Z" fill="#F8F3D9" stroke="#231F20" stroke-width="2.20809" stroke-linecap="round" stroke-linejoin="round"/>
<path d="M84.4633 93.5507C80.7758 94.5665 77.2429 95.7367 73.9308 97.0174C72.6721 97.5032 71.4577 98.0111 70.2432 98.541C53.7488 105.806 44.6736 116.007 44.6736 127.268C44.6736 138.53 53.7488 148.731 70.2432 155.995C71.4356 156.525 72.6721 157.033 73.9308 157.519C74.4607 153.986 75.2335 150.365 76.183 146.655C75.6751 146.434 75.1452 146.214 74.6594 145.993C62.5591 140.649 55.6036 133.826 55.6036 127.268C55.6036 120.71 62.5591 113.865 74.6594 108.544C75.1673 108.323 75.6751 108.102 76.183 107.881C79.4068 106.534 82.8735 105.342 86.5389 104.304C89.564 103.443 92.7216 102.692 95.9675 102.03C98.7055 97.6799 101.576 93.5066 104.557 89.5762C97.4911 90.4594 90.7343 91.8063 84.4633 93.5286V93.5507Z" fill="#F8F3D9" stroke="#231F20" stroke-width="2.20809" stroke-linecap="round" stroke-linejoin="round"/>
</svg>
